<svg width="100" height="100" viewBox="0 0 100 100" fill="none" xmlns="http://www.w3.org/2000/svg">
<circle cx="50" cy="50" r="49.5" stroke="white"/>
<path d="M39.5 25.5H60.5C68.2239 25.5 74.5 31.7761 74.5 39.5V60.5C74.5 64.213 73.025 67.774 70.3995 70.3995C67.774 73.025 64.213 74.5 60.5 74.5H39.5C31.7761 74.5 25.5 68.2239 25.5 60.5V39.5C25.5 35.787 26.975 32.226 29.6005 29.6005C32.226 26.975 35.787 25.5 39.5 25.5ZM39 29.5C36.4804 29.5 34.0641 30.5009 32.2825 32.2825C30.5009 34.0641 29.5 36.4804 29.5 39V61C29.5 66.2511 33.7489 70.5 39 70.5H61C63.5196 70.5 65.9359 69.4991 67.7175 67.7175C69.4991 65.9359 70.5 63.5196 70.5 61V39C70.5 33.7489 66.2511 29.5 61 29.5H39ZM63.125 34.25C63.8212 34.25 64.4889 34.5266 64.9812 35.0188C65.4734 35.5111 65.75 36.1788 65.75 36.875C65.75 37.5712 65.4734 38.2389 64.9812 38.7312C64.4889 39.2234 63.8212 39.5 63.125 39.5C62.4288 39.5 61.7611 39.2234 61.2688 38.7312C60.7766 38.2389 60.5 37.5712 60.5 36.875C60.5 36.1788 60.7766 35.5111 61.2688 35.0188C61.7611 34.5266 62.4288 34.25 63.125 34.25ZM50 38C53.1826 38 56.2348 39.2643 58.4853 41.5147C60.7357 43.7652 62 46.8174 62 50C62 53.1826 60.7357 56.2348 58.4853 58.4853C56.2348 60.7357 53.1826 62 50 62C46.8174 62 43.7652 60.7357 41.5147 58.4853C39.2643 56.2348 38 53.1826 38 50C38 46.8174 39.2643 43.7652 41.5147 41.5147C43.7652 39.2643 46.8174 38 50 38ZM50 42C47.8783 42 45.8434 42.8429 44.3431 44.3431C42.8429 45.8434 42 47.8783 42 50C42 52.1217 42.8429 54.1566 44.3431 55.6569C45.8434 57.1571 47.8783 58 50 58C52.1217 58 54.1566 57.1571 55.6569 55.6569C57.1571 54.1566 58 52.1217 58 50C58 47.8783 57.1571 45.8434 55.6569 44.3431C54.1566 42.8429 52.1217 42 50 42Z" fill="white" stroke="black"/>
</svg>
