<svg width="100" height="100" viewBox="0 0 100 100" fill="none" xmlns="http://www.w3.org/2000/svg">
<circle cx="50" cy="50" r="49.5" stroke="white"/>
<path d="M37.9994 30.0022C37.9988 31.3282 37.4714 32.5997 36.5333 33.5368C35.5952 34.474 34.3232 35.0001 32.9972 34.9994C31.6712 34.9988 30.3998 34.4714 29.4626 33.5333C28.5255 32.5952 27.9993 31.3232 28 29.9972C28.0007 28.6712 28.5281 27.3998 29.4662 26.4626C30.4043 25.5255 31.6762 24.9993 33.0022 25C34.3282 25.0007 35.5997 25.5281 36.5368 26.4662C37.474 27.4043 38.0001 28.6762 37.9994 30.0022ZM38.1494 38.7017H28.15V70H38.1494V38.7017ZM53.9486 38.7017H43.9991V70H53.8486V53.5759C53.8486 44.4264 65.7729 43.5765 65.7729 53.5759V70H75.6473V50.1761C75.6473 34.752 57.9983 35.3269 53.8486 42.9015L53.9486 38.7017Z" fill="white"/>
</svg>
